# xmcd
#
# Track frame offsets: 
#        150
#        14544
#        64944
#        99422
#        124090
#        160327
#        204344
#        247388
#        261832
#        294954
#
# Disc length: 4089 seconds
#
# Revision: 2
# Processed by: cddbd v1.5.2PL0 Copyright (c) Steve Scherf et al.
# Submitted via: ExactAudioCopy v1.0b6
#
DISCID=910ff70a
DTITLE=Pablo Casals - Complete Published EMI Recordings, 1926 - 1955 (
DTITLE=2009)
DYEAR=1939
DGENRE=Classical: Chamber
TTITLE0=Pablo Casals - Mieczyslaw Horszowski - BEETHOVEN: Cello Sonata 
TTITLE0=No.1 in F Op. 5 No. 1 - 1.  Adagio sostenuto
TTITLE1=Pablo Casals - Mieczyslaw Horszowski - BEETHOVEN: Cello Sonata 
TTITLE1=No.1 in F Op. 5 No. 1 - 2. Allegro
TTITLE2=Pablo Casals - Mieczyslaw Horszowski - BEETHOVEN: Cello Sonata 
TTITLE2=No.1 in F Op. 5 No. 1 - 3. Rondo: Allegro Vivace
TTITLE3=Pablo Casals - Mieczyslaw Horszowski - BEETHOVEN: Cello Sonata 
TTITLE3=No.2 in G minor Op. 5 No. 2 - 1. Adagio sostenuto ed espressiv
TTITLE3=o
TTITLE4=Pablo Casals - Mieczyslaw Horszowski - BEETHOVEN: Cello Sonata 
TTITLE4=No.2 in G minor Op. 5 No. 2 - 2. Allegro molto piu tosto prest
TTITLE4=o
TTITLE5=Pablo Casals - Mieczyslaw Horszowski - BEETHOVEN: Cello Sonata 
TTITLE5=No.2 in G minor Op. 5 No. 2 - 3. Rondo (Allegro)
TTITLE6=Pablo Casals - Otto Schulhof - BEETHOVEN: Cello Sonata No.3 in 
TTITLE6=A Op. 69 - 1. Allegro ma non tanto
TTITLE7=Pablo Casals - Otto Schulhof - BEETHOVEN: Cello Sonata No.3 in 
TTITLE7=A Op. 69 - 2. Scherzo (Allegro molto)
TTITLE8=Pablo Casals - Otto Schulhof - BEETHOVEN: Cello Sonata No.3 in 
TTITLE8=A Op. 69 - 3. Adagio cantabile - Allegro vivace
TTITLE9=Pablo Casals - Otto Schulhof - BEETHOVEN: Menuett in G Major Wo
TTITLE9=O10 No. 2
EXTD=ID3G: 32
EXTT0=
EXTT1=
EXTT2=
EXTT3=
EXTT4=
EXTT5=
EXTT6=
EXTT7=
EXTT8=
EXTT9=
PLAYORDER=
